<?xml version="1.0" encoding="iso-8859-1"?>
<!-- Generator: Adobe Illustrator 19.0.0, SVG Export Plug-In . SVG Version: 6.00 Build 0)  -->
<svg version="1.1" id="Layer_1" xmlns="http://www.w3.org/2000/svg" xmlns:xlink="http://www.w3.org/1999/xlink" x="0px" y="0px"
	 viewBox="0 0 512 512" style="enable-background:new 0 0 512 512;" xml:space="preserve">
<g>
	<g>
		<path d="M483.257,103.214H239.566c-3.889,0-7.48-1.945-9.605-5.201L211.18,69.23c-5.521-8.463-14.85-13.514-24.955-13.514H95.437
			c-10.104,0-19.433,5.053-24.953,13.514L51.701,98.012c-2.125,3.257-5.716,5.202-9.605,5.202H28.743
			C12.893,103.214,0,116.107,0,131.956v295.585c0,15.849,12.893,28.743,28.743,28.743h454.515c15.849,0,28.743-12.893,28.743-28.743
			V131.956C512,116.107,499.107,103.214,483.257,103.214z M16.306,211.251c0-6.858,5.58-12.437,12.437-12.437h139.942
			c8.912,0,17.583-3.15,24.418-8.868l32.74-27.393c3.906-3.268,8.862-5.068,13.954-5.068h243.459c6.858,0,12.437,5.58,12.437,12.437
			v227.741H16.306V211.251z M49.281,182.507v-18.419c0-3.642,2.962-6.604,6.604-6.604h150.606l-23.851,19.955
			c-3.906,3.268-8.862,5.068-13.954,5.068H49.281z M495.694,427.541c0,6.858-5.579,12.437-12.437,12.437H28.743
			c-6.858,0-12.437-5.579-12.437-12.437v-13.572h479.389V427.541z M495.694,144.012c-3.766-1.815-7.984-2.833-12.437-2.833H55.885
			c-12.633,0-22.91,10.277-22.91,22.91v18.42h-4.233c-4.453,0-8.671,1.017-12.437,2.833v-53.385c0-6.858,5.58-12.437,12.437-12.437
			h13.352c9.419,0,18.115-4.709,23.261-12.597L84.139,78.14c2.499-3.831,6.723-6.118,11.299-6.118h90.787
			c4.575,0,8.8,2.287,11.299,6.119l18.782,28.783c5.147,7.888,13.842,12.597,23.261,12.597h243.691
			c6.858,0,12.437,5.579,12.437,12.437V144.012z"/>
	</g>
</g>
<g>
</g>
<g>
</g>
<g>
</g>
<g>
</g>
<g>
</g>
<g>
</g>
<g>
</g>
<g>
</g>
<g>
</g>
<g>
</g>
<g>
</g>
<g>
</g>
<g>
</g>
<g>
</g>
<g>
</g>
</svg>
